<svg xmlns="http://www.w3.org/2000/svg" height="226.399" width="228.992" xmlns:v="https://vecta.io/nano"><defs><clipPath id="A"><path d="M213.671 325.039h173.04v191.576h-173.04z"/></clipPath><clipPath id="B"><path d="M-32768 32767h65535v-65535h-65535z"/></clipPath></defs><g clip-path="url(#A)" transform="matrix(1.333333 0 0 -1.333333 -285.75813 687.95505)"><g clip-path="url(#B)"><path d="M383.125 502.356c-2.722 5.79-8.555 12.832-20.912 13.61h-.086-.043-122.921-.087-.086c-3.024-.259-8.9-1.21-14.258-4.71-6.827-4.493-10.413-11.795-10.413-21.171V372.133c0-.259.044-6.524 3.241-12.875 3.024-5.962 9.419-13.091 22.942-13.091h119.421c.26 0 6.568.043 12.962 3.197 6.006 2.981 13.178 9.332 13.178 22.769v117.953c0 .259-.043 6.135-2.938 12.27" fill="#fff"/><path d="M380.792 500.369c-2.679 5.617-8.339 12.443-20.307 13.221h-.043-.043-119.508-.086-.087c-2.938-.259-8.684-1.167-13.869-4.58-6.61-4.407-10.11-11.493-10.11-20.609V373.819c0-.259.043-6.351 3.154-12.53 2.938-5.79 9.16-12.702 22.294-12.702h116.052c.259 0 6.394.043 12.616 3.11 5.832 2.895 12.832 9.074 12.832 22.122v114.582c-.043.259-.087 6.006-2.895 11.968" fill="#0069b1"/><path d="M290.016 446.491c-4.709 0-8.425 2.16-8.425 7.388v15.511c0 .735-.216 1.426-.648 1.512-.778.173-1.512.389-1.512.951 0 .302.172.562.691.562.864 0 1.987-.173 4.277-.173 1.21 0 2.247.173 3.802.173.519 0 .994-.216.951-.735-.13-1.037-1.944-.043-1.944-1.815v-17.498c0-2.938 1.123-4.277 3.197-4.277h-.691c2.073 0 3.197 1.339 3.197 4.277v17.498c0 1.772-1.858.778-1.944 1.815-.044.519.432.735.95.735 1.555 0 2.592-.173 3.802-.173 2.29 0 3.413.173 4.278.173.518 0 .691-.26.691-.562 0-.562-.735-.821-1.512-.951-.432-.086-.648-.821-.648-1.512v-15.511c0-5.228-3.716-7.388-8.426-7.388zm40.916 25.146c-2.376 0-3.629-5.012-3.629-9.203 0-7.734 1.685-14.647 4.623-14.647 2.16 0 3.413 3.932 3.413 10.024 0 6.395-1.512 13.826-4.407 13.826m.432-25.146c-6.438 0-10.067 7.172-10.067 13.221 0 6.87 3.5 13.221 10.067 13.221 6.438 0 10.067-7.172 10.067-13.221 0-6.87-3.543-13.221-10.067-13.221M309.07 460.49c-.13 0-.346.086-.346.216v8.641c0 1.512.389 1.858 1.124 1.858 1.944 0 3.283-2.463 3.283-5.271.044-3.197-1.512-5.444-4.061-5.444m9.851-10.153l-2.506 7.085c-.475 1.599-.907 2.636-1.339 3.241 1.728.605 3.672 2.03 3.672 5.487 0 4.234-2.895 6.308-6.783 6.308-2.333 0-4.494-.173-5.963-.173-2.29 0-3.413.173-4.147.173-.605 0-.951-.13-.951-.562 0-.475.605-.605 1.167-.734s1.166-.562 1.166-1.772v-19.356c0-1.21-.561-1.426-1.166-1.512-.562-.13-.994-.259-.994-.951 0-.432.346-.561.778-.561.777 0 1.857.173 4.147.173s3.37-.173 4.019-.173.993.129.993.561c0 .778-.605.649-1.296.951-.864.389-.907 1.383-.907 2.592v7.518c0 .173.086.303.345.303 1.037 0 1.426-.908 1.901-2.334l2.55-7.777c.561-1.728.691-1.901 2.246-1.901h4.883c.345 0 .648.173.648.605-.043 1.21-1.383-.086-2.463 2.809m-49.039 11.406c0-.346.13-.432 1.253-.432 1.555 0 2.074.562 2.463 1.469.389.994.389 1.685 1.123 1.685.346 0 .562-.216.562-.778 0-.907-.13-2.074-.13-3.456 0-1.512.13-2.377.13-3.241 0-.561-.13-.864-.692-.864-.691 0-.777.648-1.253 1.858-.345.951-.777 1.599-2.289 1.599-.865 0-1.21-.087-1.21-.346v-9.03c0-1.296.432-1.512 1.771-1.512 5.358 0 3.846 5.919 6.006 5.919.648 0 .778.605.778-4.105 0-3.37-.087-3.499-1.253-3.499s-3.241.173-7.086.173c-4.969 0-6.351-.173-7.129-.173-.605 0-.951.129-.951.561 0 .562.26.865.994.951.951.173 1.296.734 1.296 2.16v18.406c0 2.808-2.246 1.296-2.246 2.808 0 .562.777.562 1.685.562 1.814 0 4.277-.173 6.437-.173 1.383 0 4.321.173 6.481.173.778 0 .994-.302.994-.907v-4.234c0-.908-.303-1.297-.907-1.297-1.167 0-1.642 4.71-5.574 4.71-.907 0-1.339-.259-1.339-.605zm61.439-35.472h0m0 0l-.778-.691c-.216-.173-.432-.389-.518-.432v.086 2.42c0 1.166-.648 1.296-.951 1.296s-.605-.173-1.728-.864c-1.728-.994-4.58-2.722-7.259-3.327-.907-.216-1.425-.778-1.425-1.512 0-.951.864-1.21 1.512-1.34.907-.216 1.426-.389 1.426-1.382v-16.721c0-.778-.389-.907-1.167-1.08-.648-.173-1.599-.389-1.599-1.469 0-.994.692-1.512 1.988-1.512l1.469.086c.994.086 2.376.173 3.672.173l2.766-.13 2.376-.129c.475 0 1.944 0 1.944 1.296 0 1.08-.777 1.339-1.296 1.469-.648.173-1.123.345-1.123 1.814v16.375c0 2.031 1.037 3.155 2.938 3.155 1.858 0 2.808-1.124 2.808-3.155v-16.893c0-.951-.346-1.037-.907-1.167-.519-.129-1.34-.302-1.34-1.382 0-.994.648-1.512 1.988-1.512l1.771.086c.864.043 1.815.13 3.025.13l2.894-.13 3.155-.13c1.382 0 1.901.778 1.901 1.513 0 1.037-.865 1.209-1.513 1.339-.345.086-.691.13-1.037.302-.388.173-.864 1.599-.864 3.111v13.869c0 5.704-2.938 9.117-7.863 9.117-2.679 0-4.882-1.469-6.265-2.679m-20.393 1.555c-1.987-1.037-4.666-2.463-7.086-3.068-1.037-.259-1.642-.821-1.642-1.512 0-.994.994-1.21 1.729-1.339 1.166-.259 1.685-.475 1.685-1.383v-16.72c0-.649-.389-.821-1.297-1.037-.734-.173-1.728-.433-1.728-1.513 0-.907.778-1.469 1.988-1.469l1.296.044c1.08.043 2.679.172 4.623.172l5.314-.216c2.161 0 2.506.908 2.506 1.469 0 1.21-1.037 1.383-1.814 1.513-1.037.216-1.858.345-1.858 1.944V426.4c0 1.469 0 2.549-1.124 2.549-.432 0-1.08-.302-2.592-1.123m-5.833 7.431c0-2.851 2.117-4.968 5.055-4.968s5.055 2.074 5.055 4.968c0 2.852-2.117 4.926-5.055 4.926s-5.055-2.074-5.055-4.926" fill="#fff"/><path d="M257.871 491.814c-.13.13-.259.302-.259.475 0 .346.302.648.648.648h4.45l1.383 4.191c.086.26.302.432.605.432s.518-.172.604-.475l1.383-4.191h4.407.043c.346 0 .648-.302.648-.648 0-.216-.129-.389-.302-.518l-3.586-2.593 1.339-4.104-.043-.044c.043-.086.043-.129.043-.216 0-.345-.302-.648-.648-.648a.7.7 0 0 0-.389.13h-.043l-3.543 2.549-3.543-2.549c-.129-.086-.259-.13-.389-.13-.345 0-.648.303-.648.648 0 .087.043.13.043.173l1.383 4.191zm-23.072-25.319c-.13.13-.259.302-.259.475 0 .346.302.648.648.648h4.45l1.383 4.191a.65.65 0 0 0 .605.432c.302 0 .518-.216.604-.475l1.383-4.191h4.407.043c.346 0 .648-.302.648-.648 0-.216-.129-.389-.302-.518l-3.586-2.593 1.339-4.104h-.043c.043-.087.043-.173.043-.216 0-.346-.302-.648-.648-.648a.7.7 0 0 0-.389.129h-.043l-3.543 2.549-3.543-2.549c-.129-.086-.259-.173-.389-.173-.345 0-.648.26-.648.648 0 .087.044.13.044.216l1.382 4.191zm-8.123-32.361c-.13.13-.259.302-.259.475 0 .346.302.648.648.648h4.45l1.383 4.191a.65.65 0 0 0 .605.432c.302 0 .518-.172.604-.475l1.383-4.191h4.407.043c.346 0 .648-.302.648-.648 0-.216-.129-.389-.302-.518l-3.586-2.593 1.339-4.104h-.043c.043-.087.043-.173.043-.26 0-.345-.302-.648-.648-.648a.7.7 0 0 0-.389.13l-3.543 2.549-3.543-2.549h-.043c-.086-.086-.259-.13-.389-.13-.345 0-.648.303-.648.648 0 .087.044.13.044.173l1.382 4.191zm7.086-33.787c-.13.13-.259.302-.259.475 0 .346.302.648.648.648h4.45l1.383 4.191a.65.65 0 0 0 .605.432c.302 0 .518-.216.604-.475l1.383-4.191h4.407.043c.346 0 .648-.302.648-.648 0-.216-.129-.389-.302-.518l-3.586-2.593 1.339-4.104h-.043c.043-.087.043-.173.043-.216 0-.346-.302-.648-.648-.648a.7.7 0 0 0-.389.129h-.043l-3.543 2.549-3.543-2.549c-.129-.086-.259-.173-.389-.173-.345 0-.648.303-.648.648 0 .087.044.13.044.216l1.382 4.191zm25.535-23.245c-.13.13-.259.302-.259.475 0 .346.302.648.648.648h4.45l1.383 4.191a.65.65 0 0 0 .605.432c.302 0 .518-.172.604-.432l1.383-4.191h4.407.043c.346 0 .648-.302.648-.648 0-.216-.129-.389-.302-.518l-3.586-2.593 1.339-4.104h-.043c.043-.087.043-.173.043-.216 0-.346-.302-.648-.648-.648a.7.7 0 0 0-.389.129h-.043l-3.543 2.55-3.543-2.55c-.129-.086-.259-.172-.389-.172-.345 0-.648.302-.648.648 0 .086.044.129.044.172l1.382 4.191zm81.875 114.712c.13.13.259.302.259.475 0 .346-.302.648-.648.648h-4.45l-1.383 4.191a.65.65 0 0 1-.605.432c-.302 0-.518-.172-.604-.475l-1.383-4.191h-4.45-.043c-.346 0-.649-.302-.649-.648 0-.216.13-.389.303-.518l3.586-2.593-1.339-4.104v-.044c-.044-.086-.044-.129-.044-.216 0-.345.303-.648.649-.648.129 0 .259.044.388.13l3.543 2.549 3.543-2.549a.7.7 0 0 1 .389-.13c.346 0 .648.303.648.648 0 .087-.043.13-.043.173l-1.383 4.191zm23.072-25.319c.13.13.259.302.259.475 0 .346-.302.648-.648.648h-4.45l-1.383 4.191a.65.65 0 0 1-.605.432c-.302 0-.518-.216-.604-.475l-1.383-4.191h-4.407-.043c-.346 0-.648-.302-.648-.648 0-.216.129-.389.302-.518l3.586-2.593-1.339-4.104c-.043-.087-.043-.173-.043-.216 0-.346.302-.648.648-.648.129 0 .259.043.389.129l3.542 2.549 3.543-2.549c.13-.086.26-.173.389-.173.346 0 .648.26.648.648 0 .087 0 .13-.043.216l-1.383 4.191zm8.166-32.361c.13.13.259.302.259.475 0 .346-.302.648-.648.648h-4.45l-1.383 4.191a.65.65 0 0 1-.605.432c-.302 0-.518-.172-.604-.475l-1.34-4.191h-4.407-.043c-.346 0-.648-.302-.648-.648 0-.216.129-.389.302-.518l3.586-2.593-1.339-4.104c-.043-.087-.043-.173-.043-.26 0-.345.302-.648.648-.648a.7.7 0 0 1 .389.13l3.543 2.549 3.543-2.549c.129-.086.259-.13.388-.13.346 0 .649.303.649.648 0 .087-.044.13-.044.173l-1.382 4.191zm-7.129-33.787c.13.13.259.302.259.475 0 .346-.302.648-.648.648h-4.45l-1.383 4.191a.65.65 0 0 1-.605.432c-.302 0-.518-.216-.604-.475l-1.383-4.191h-4.407-.043c-.346 0-.648-.302-.648-.648 0-.216.129-.389.302-.518l3.586-2.593-1.339-4.104c-.043-.087-.043-.173-.043-.216 0-.346.302-.648.648-.648.129 0 .259.043.389.129l3.542 2.549 3.543-2.549c.13-.086.26-.173.389-.173.346 0 .648.303.648.648 0 .087 0 .13-.043.216l-1.339 4.191zm-25.535-23.245c.13.13.259.302.259.475 0 .346-.302.648-.648.648h-4.45l-1.383 4.191c-.086.26-.302.432-.605.432s-.518-.172-.604-.432l-1.383-4.191h-4.407-.043c-.346 0-.648-.302-.648-.648 0-.216.129-.389.302-.518l3.586-2.593-1.339-4.104c-.043-.087-.043-.173-.043-.216 0-.346.302-.648.648-.648.129 0 .259.043.389.129l3.542 2.55 3.543-2.55c.13-.086.26-.172.389-.172.346 0 .648.302.648.648 0 .086 0 .129-.043.172l-1.339 4.235zm-33.355-10.197c.13.13.259.302.259.475 0 .346-.302.648-.648.648h-4.45l-1.383 4.191c-.086.26-.302.432-.605.432s-.518-.216-.604-.475l-1.383-4.191h-4.407-.043c-.346 0-.648-.302-.648-.648 0-.216.129-.389.302-.518l3.629-2.593-1.339-4.104c-.043-.087-.043-.173-.043-.216 0-.346.302-.648.648-.648a.7.7 0 0 1 .389.129l3.543 2.549 3.543-2.549c.129-.086.259-.173.388-.173.346 0 .649.303.649.648 0 .087 0 .13-.044.216l-1.382 4.148zm0 131.562c.13.13.259.302.259.475 0 .346-.302.648-.648.648h-4.45l-1.383 4.191c-.086.26-.302.432-.605.432s-.518-.216-.604-.475l-1.383-4.191h-4.407-.043c-.346 0-.648-.302-.648-.648 0-.216.129-.389.302-.518l3.629-2.593-1.339-4.104c-.043-.087-.043-.173-.043-.26 0-.345.302-.648.648-.648a.7.7 0 0 1 .389.13l3.543 2.549 3.543-2.549v.043c.129-.086.259-.129.388-.129.346 0 .649.302.649.648 0 .086 0 .129-.044.172l-1.382 4.191zm-21.301-91.985v15.511c0 1.037 1.253 1.728 2.333 1.728 2.981 0 4.666-3.629 4.666-9.98 0-5.185-.691-11.407-3.975-11.407-1.469 0-3.024 1.469-3.024 4.148m1.987 20.696l-1.123-.821c-.346-.26-.734-.562-.994-.692-.043.389-.043 1.167-.043 1.599 0 .648 0 1.685-.95 1.685-.303 0-.692-.216-1.772-.864-1.339-.821-3.37-2.031-5.444-2.679-2.895-.907-4.148-1.426-4.148-2.376 0-1.08.951-1.253 1.599-1.34.951-.172 1.901-.302 1.901-2.462v-27.954c0-1.729-.95-2.031-2.419-2.377-.821-.173-1.858-.389-1.858-1.382 0-.778.691-1.426 1.512-1.426l6.006.259 8.684-.259c1.901 0 2.074 1.037 2.074 1.382 0 1.469-1.599 1.513-2.636 1.599-1.512.043-2.333 1.296-2.333 3.543v7.388c0 .259.13.303.216.303.13 0 .692-.216 1.167-.346 1.166-.389 2.765-.951 3.975-.951 6.956 0 11.795 7.648 11.795 14.518 0 7.129-2.722 15.467-10.456 15.467-1.944-.043-3.629-1.037-4.753-1.814m-36.725 3.154c0-6.178 4.234-9.765 8.382-13.221 3.543-2.981 6.913-5.833 6.913-10.067 0-2.981-1.599-6.006-5.185-6.006-3.499 0-4.45 4.278-5.314 8.08-.648 2.851-1.124 5.098-2.765 5.098-2.117 0-2.333-1.944-2.463-5.098l-.043-.691c-.043-1.34-.13-3.198-.13-6.438 0-3.629 6.481-4.148 10.326-4.148 8.123 0 14.215 6.222 14.215 14.431 0 7.172-4.709 10.845-8.814 14.085-3.456 2.722-6.438 5.055-6.438 8.9 0 2.766 1.34 4.407 3.586 4.407 2.809 0 4.148-3.629 5.228-6.567.865-2.333 1.556-4.191 2.938-4.191 1.945 0 1.945 1.512 1.945 3.457l.043 6.61c0 1.426-.821 1.815-1.556 2.204l-.216.086c-1.901.907-5.141 1.599-7.561 1.599-6.437.043-13.091-4.667-13.091-12.53" fill="#fed141"/></g></g></svg>